<svg width="26" height="25" viewBox="0 0 26 25" fill="none" xmlns="http://www.w3.org/2000/svg">
<path d="M20.3749 5.92141L15.0374 2.93141C14.0153 2.36141 12.4151 2.36141 11.393 2.93141L6.00385 5.94141C3.86678 7.34141 3.74289 7.55141 3.74289 9.78141V15.2114C3.74289 17.4414 3.86678 17.6614 6.04515 19.0814L11.3827 22.0714C11.8989 22.3614 12.5596 22.5014 13.21 22.5014C13.8604 22.5014 14.5212 22.3614 15.027 22.0714L20.4162 19.0614C22.5532 17.6614 22.6771 17.4514 22.6771 15.2214V9.78141C22.6771 7.55141 22.5532 7.34141 20.3749 5.92141ZM13.21 15.7514C11.362 15.7514 9.85471 14.2914 9.85471 12.5014C9.85471 10.7114 11.362 9.25141 13.21 9.25141C15.058 9.25141 16.5653 10.7114 16.5653 12.5014C16.5653 14.2914 15.058 15.7514 13.21 15.7514Z" fill="#4F5055"/>
</svg>
