<svg width="25" height="24" viewBox="0 0 25 24" fill="none" xmlns="http://www.w3.org/2000/svg">
<path d="M11.6168 3.66277C11.9928 2.95486 13.0072 2.95486 13.3832 3.66277L15.3392 7.34562C15.4837 7.61777 15.7457 7.80807 16.0492 7.86144L20.1562 8.58368C20.9457 8.7225 21.2591 9.68721 20.702 10.2635L17.8039 13.2619C17.5897 13.4834 17.4897 13.7914 17.5327 14.0965L18.115 18.2257C18.2269 19.0194 17.4062 19.6156 16.686 19.2639L12.9388 17.4342C12.6619 17.2989 12.3381 17.2989 12.0612 17.4342L8.31402 19.2639C7.59374 19.6156 6.77311 19.0194 6.88503 18.2257L7.46729 14.0965C7.51032 13.7914 7.41027 13.4834 7.19611 13.2619L4.29796 10.2635C3.74088 9.68721 4.05434 8.7225 4.84379 8.58368L8.95083 7.86144C9.25432 7.80807 9.51627 7.61776 9.66081 7.34562L11.6168 3.66277Z" stroke="#00C664" stroke-width="1.5"/>
</svg>
